<svg class="svg-icon" style="width: 1em; height: 1em;vertical-align: middle;fill: currentColor;overflow: hidden;" viewBox="0 0 1024 1024" version="1.1" xmlns="http://www.w3.org/2000/svg"><path d="M667.2 512v2.2c-0.6 76.4-17.4 153.8-28.6 197-22-5-50-11.2-82.6-18.6-67.8-15.2-100 31.6-111 53.6H241.8s-37.6-117-38.6-232V512v-2.2c1-115 38.6-232 38.6-232h386.8s37.6 117 38.6 232v2.2z" fill="#CD9E5D" /><path d="M667.2 512v2.2c-0.2 20-1.4 40.2-3.4 59.8l-11.8 12s-88 31-232.8 31c-122.8 0-192.4-22.2-210.8-29-3-24-4.8-49-5-73.8V512v-2.2c0.2-25.6 2.2-51.2 5.2-75.8l3.8-3.8s88-31 232.8-31 215.8 31 215.8 31l0.6 0.6c3.2 25.4 5.4 52.2 5.6 79v2.2z" fill="#FFFFFF" /><path d="M667.2 512v2.2c-0.2 20-1.4 40.2-3.4 59.8l-11.8 12s-88 31-232.8 31c-122.8 0-192.4-22.2-210.8-29-3-24-4.8-49-5-73.8V512v-2.2c0.2-25.6 2.2-51.2 5.2-75.8l3.8-3.8s88-31 232.8-31 215.8 31 215.8 31l0.6 0.6c3.2 25.4 5.4 52.2 5.6 79v2.2z" fill="#FFFFFF" /><path d="M445.4 209H194s4.8 42.6 47.8 69H638c43-26.4 47.8-69 47.8-69H445.4zM677 815H194s4.8-42.6 47.8-69h202.8c-3.2 6.4-4.8 10.8-4.8 10.8l236.8 53.4 3.4-15-3 19.8z" fill="#CD9E5D" /><path d="M440 757s28-84.2 115.8-64.4c87.8 19.8 140.6 31.6 140.6 31.6l-19.4 86.2L440 757z" fill="#CDCCCC" /><path d="M696.348 724.088l132.668 29.894-11.826 52.48-132.668-29.892z" fill="#CDCCCC" /><path d="M451.4 757H233.8l-2.4-7.6c-1.6-4.6-35.8-112.8-38.8-224.4h-0.2v-26.4h0.2c3-111.6 37.4-219.6 38.8-224.4l2.4-7.6h402.6l2.4 7.6c1.6 4.6 35.8 112.8 38.8 224.4h0.2v26.2h-0.2c-2 75.4-18.8 150-28.8 188.8l-2.6 10.2-93-21c-8-1.8-16-2.8-23.4-2.8-43.6 0-66.2 31.8-75.6 50.6l-2.8 6.4zM250 735.2h188.2c11.8-20.8 40-56.6 92-56.6 9 0 18.4 1.2 28.2 3.2l72.2 16.4c10.4-42 25.2-113.6 25.8-184V510c-0.8-95.4-27.6-193.6-35.8-221.2H250c-8.2 27.6-35 125.6-35.8 221.2v4.2c0.8 95.4 27.6 193.4 35.8 221z" fill="#3A3033" /><path d="M641.2 288.8H238.8l-2.6-1.6c-47-28.8-52.6-75-53-77l-1.4-12.2H698l-1.4 12.2c-0.2 2-5.8 48.2-53 77l-2.4 1.6z m-396.2-21.8h390c22.6-14.8 32.6-34.6 37-47H208c4.2 12.4 14.2 32 37 47zM686.2 826H181.8l1.4-12.2c0.2-2 5.8-48.2 53-77l2.6-1.6h223.6l-7 14 213.2 48 1-4.4 21.4 4.2-4.8 29zM208 804.2h391.6l-173.8-39.2 2.6-8h-183.4c-22.8 15-32.8 34.6-37 47.2zM419.2 628c-124.4 0-195.6-22.8-214.6-29.6l-6.2-2.4-0.8-6.6c-2.8-22.2-4.4-43.8-5-64.2h-0.2v-26.4h0.2c0.6-21 2.2-43.2 5.2-66.2l0.4-3.6 8.2-8.4 2.4-0.8c3.6-1.2 91.4-31.6 236.4-31.6 145.4 0 217.2 30.6 220.2 32l2.4 1 4.2 5 0.4 3.2c3.2 24.2 5 47.4 5.6 69.4h0.2v26.2h-0.2c-0.4 16-1.6 32.8-3.2 50l-0.4 3.8-16.2 16.6-2.4 0.8c-3.8 1.4-91.6 31.8-236.6 31.8z m-200.8-48c24.8 8.2 91.2 26.2 200.8 26.2 128.6 0 212-24.8 226.8-29.6l7.2-7.4c1.8-19.2 2.8-37.6 3-55v-4c-0.2-22.6-1.8-46.6-4.8-71.6-18.6-6.8-87.4-28.2-206.2-28.2-126.8 0-209.8 24.2-226.2 29.4-3 24.6-4.4 48.4-4.6 70.4v4.2c0 20.6 1.4 42.6 4 65.6z" fill="#3A3033" /><path d="M685.2 823.4l-259.4-58.4 3.8-11.4c8.6-26 40.6-75 100.4-75 9 0 18.4 1.2 28.2 3.2l151.2 34-24.2 107.6z m-229.8-74.2l213.2 48 14.6-64.8-129.8-29.2c-8-1.8-16-2.8-23.4-2.8-43 0-65.4 31.4-74.6 48.8z" fill="#3A3033" /><path d="M825.4 819.6l-154-34.8 16.6-74 154 34.8-16.6 74z m-127.8-51.2l111.4 25 7-31.2-111.4-25-7 31.2z" fill="#3A3033" /><path d="M444.6 578.2c-46.8 0-84-27.2-84.4-61.8-0.6-34.8 37.4-63.6 84.4-64.4h1.8c46.8 0 84 27.2 84.4 61.8 0.6 34.8-37.4 63.6-84.4 64.4h-1.8z m1.8-104.2h-1.4c-34.4 0.6-63.2 19.8-62.8 42.2 0.4 22.2 28.4 40.2 62.6 40.2h1.4c34.4-0.6 63.2-19.8 62.8-42.2-0.4-22.2-28.6-40.2-62.6-40.2z" fill="#3A3033" /><path d="M406.8 544.4c-1.2 0-2.6 0-3.8-0.2-25-2-40.2-23.8-40.8-24.8l18-12.4s10.2 14.2 24.8 15.4c9.6 0.8 19.6-4.4 30-15 14.8-15.4 31-23 48.2-22.4 26.4 0.6 44.4 20.8 45 21.8l-16.4 14.4 8.2-7.2-8.2 7.2c-0.2-0.2-12.6-14-29.4-14.2-10.8-0.2-21.2 5.2-31.6 15.8-14.2 14.4-28.8 21.6-44 21.6z" fill="#3A3033" /><path d="M419.2 628c-124.4 0-195.6-22.8-214.6-29.6l-6.2-2.4-0.8-6.6c-2.8-22.2-4.4-43.8-5-64.2h-0.2v-26.4h0.2c0.6-21 2.2-43.2 5.2-66.2l0.4-3.6 8.2-8.4 2.4-0.8c3.6-1.2 91.4-31.6 236.4-31.6 145.4 0 217.2 30.6 220.2 32l2.4 1 4.2 5 0.4 3.2c3.2 24.2 5 47.4 5.6 69.4h0.2v26.2h-0.2c-0.4 16-1.6 32.8-3.2 50l-0.4 3.8-16.2 16.6-2.4 0.8c-3.8 1.4-91.6 31.8-236.6 31.8z m-200.8-48c24.8 8.2 91.2 26.2 200.8 26.2 128.6 0 212-24.8 226.8-29.6l7.2-7.4c1.8-19.2 2.8-37.6 3-55v-4c-0.2-22.6-1.8-46.6-4.8-71.6-18.6-6.8-87.4-28.2-206.2-28.2-126.8 0-209.8 24.2-226.2 29.4-3 24.6-4.4 48.4-4.6 70.4v4.2c0 20.6 1.4 42.6 4 65.6z" fill="#3A3033" /></svg>