<svg class="svg-icon" style="width: 1em; height: 1em;vertical-align: middle;fill: currentColor;overflow: hidden;" viewBox="0 0 1024 1024" version="1.1" xmlns="http://www.w3.org/2000/svg"><path d="M512 989.866667C310.613333 989.866667 17.066667 914.773333 17.066667 843.093333c0-6.826667 0-10.24 3.413333-17.066666l170.666667-498.346667c0-13.653333 17.066667-40.96 225.28-54.613333 10.24 0 17.066667 6.826667 17.066666 17.066666s-6.826667 17.066667-17.066666 17.066667c-98.986667 6.826667-177.493333 20.48-191.146667 30.72L51.2 843.093333c10.24 30.72 235.52 112.64 460.8 112.64s450.56-81.92 460.8-112.64c0 0 0-3.413333-3.413333-3.413333l-170.666667-501.76c-13.653333-10.24-92.16-23.893333-194.56-30.72-10.24 0-17.066667-10.24-17.066667-17.066667 0-10.24 6.826667-17.066667 17.066667-17.066666 208.213333 13.653333 225.28 40.96 225.28 54.613333l170.666667 501.76c3.413333 3.413333 3.413333 10.24 3.413333 13.653333 3.413333 71.68-290.133333 146.773333-491.52 146.773334z" fill="" /><path d="M512 341.333333c-85.333333 0-153.6-68.266667-153.6-153.6S426.666667 34.133333 512 34.133333s153.6 68.266667 153.6 153.6-68.266667 153.6-153.6 153.6z m0-273.066666c-64.853333 0-119.466667 54.613333-119.466667 119.466666S447.146667 307.2 512 307.2s119.466667-54.613333 119.466667-119.466667S576.853333 68.266667 512 68.266667zM375.466667 750.933333c-10.24 0-17.066667-6.826667-17.066667-17.066666v-170.666667c0-10.24 6.826667-17.066667 17.066667-17.066667s17.066667 6.826667 17.066666 17.066667v170.666667c0 10.24-6.826667 17.066667-17.066666 17.066666z" fill="" /><path d="M375.466667 716.8c-6.826667 0-10.24-3.413333-13.653334-6.826667-3.413333-6.826667-3.413333-17.066667 6.826667-23.893333l85.333333-51.2c6.826667-3.413333 17.066667-3.413333 23.893334 6.826667 3.413333 6.826667 3.413333 17.066667-6.826667 23.893333L385.706667 716.8H375.466667z" fill="" /><path d="M460.8 750.933333c-3.413333 0-10.24 0-13.653333-3.413333l-51.2-51.2c-6.826667-6.826667-6.826667-17.066667 0-23.893333s17.066667-6.826667 23.893333 0l51.2 51.2c6.826667 6.826667 6.826667 17.066667 0 23.893333 0 3.413333-6.826667 3.413333-10.24 3.413333zM597.333333 750.933333c-37.546667 0-68.266667-30.72-68.266666-68.266666s30.72-68.266667 68.266666-68.266667 68.266667 30.72 68.266667 68.266667-30.72 68.266667-68.266667 68.266666z m0-102.4c-20.48 0-34.133333 13.653333-34.133333 34.133334s13.653333 34.133333 34.133333 34.133333 34.133333-13.653333 34.133334-34.133333-13.653333-34.133333-34.133334-34.133334z" fill="" /><path d="M597.333333 819.2c-20.48 0-37.546667-10.24-51.2-23.893333-6.826667-6.826667-6.826667-17.066667 3.413334-23.893334 6.826667-6.826667 17.066667-6.826667 23.893333 3.413334 6.826667 6.826667 17.066667 13.653333 27.306667 13.653333 20.48 0 34.133333-13.653333 34.133333-34.133333v-119.466667c0-10.24 6.826667-17.066667 17.066667-17.066667s17.066667 6.826667 17.066666 17.066667V750.933333c-3.413333 37.546667-34.133333 68.266667-71.68 68.266667zM508.586667 443.733333c-85.333333 0-232.106667-20.48-235.52-20.48-10.24 0-17.066667-10.24-13.653334-20.48 0-10.24 10.24-17.066667 20.48-13.653333 0 0 146.773333 20.48 232.106667 20.48s232.106667-20.48 232.106667-20.48c10.24 0 17.066667 3.413333 20.48 13.653333 0 10.24-6.826667 17.066667-13.653334 20.48-13.653333 0-157.013333 20.48-242.346666 20.48z" fill="" /></svg>